<?xml version="1.0" encoding="UTF-8" standalone="no"?>
<!-- Generator: Adobe Illustrator 21.0.0, SVG Export Plug-In . SVG Version: 6.00 Build 0)  -->

<svg
   xmlns:dc="http://purl.org/dc/elements/1.1/"
   xmlns:cc="http://creativecommons.org/ns#"
   xmlns:rdf="http://www.w3.org/1999/02/22-rdf-syntax-ns#"
   xmlns:svg="http://www.w3.org/2000/svg"
   xmlns="http://www.w3.org/2000/svg"
   xmlns:sodipodi="http://sodipodi.sourceforge.net/DTD/sodipodi-0.dtd"
   xmlns:inkscape="http://www.inkscape.org/namespaces/inkscape"
   version="1.1"
   id="Layer_1"
   x="0px"
   y="0px"
   width="400px"
   height="120px"
   viewBox="0 0 400 120"
   style="enable-background:new 0 0 400 120;"
   xml:space="preserve"
   sodipodi:docname="mejs-controls.svg"
   inkscape:version="0.92.1 r15371"><metadata
     id="metadata3795"><rdf:RDF><cc:Work
         rdf:about=""><dc:format>image/svg+xml</dc:format><dc:type
           rdf:resource="http://purl.org/dc/dcmitype/StillImage" /></cc:Work></rdf:RDF></metadata><defs
     id="defs3793" /><sodipodi:namedview
     pagecolor="#ffffff"
     bordercolor="#666666"
     borderopacity="1"
     objecttolerance="10"
     gridtolerance="10"
     guidetolerance="10"
     inkscape:pageopacity="0"
     inkscape:pageshadow="2"
     inkscape:window-width="1366"
     inkscape:window-height="705"
     id="namedview3791"
     showgrid="false"
     inkscape:zoom="5.4591837"
     inkscape:cx="78"
     inkscape:cy="64.71028"
     inkscape:window-x="-8"
     inkscape:window-y="-8"
     inkscape:window-maximized="1"
     inkscape:current-layer="Layer_1" /><style
     type="text/css"
     id="style3680">
	.st0{fill:#FFFFFF;width:16px;height:16px}
	.st1{fill:none;stroke:#FFFFFF;stroke-width:1.5;stroke-linecap:round;}
	.st2{fill:none;stroke:#FFFFFF;stroke-width:2;stroke-linecap:round;}
	.st3{fill:none;stroke:#FFFFFF;}
	.st4{fill:#231F20;}
	.st5{opacity:0.75;fill:none;stroke:#FFFFFF;stroke-width:5;enable-background:new;}
	.st6{fill:none;stroke:#FFFFFF;stroke-width:5;}
	.st7{opacity:0.4;fill:#FFFFFF;enable-background:new;}
	.st8{opacity:0.6;fill:#FFFFFF;enable-background:new;}
	.st9{opacity:0.8;fill:#FFFFFF;enable-background:new;}
	.st10{opacity:0.9;fill:#FFFFFF;enable-background:new;}
	.st11{opacity:0.3;fill:#FFFFFF;enable-background:new;}
	.st12{opacity:0.5;fill:#FFFFFF;enable-background:new;}
	.st13{opacity:0.7;fill:#FFFFFF;enable-background:new;}
</style><g
     style="fill:#2c3e50;fill-opacity:1;opacity:0.7"
     id="play"><path
       inkscape:connector-curvature="0"
       style="fill:#2c3e50;fill-opacity:1"
       id="path3682"
       d="m 16.5,8.5 c 0.3,0.1 0.4,0.5 0.2,0.8 -0.1,0.1 -0.1,0.2 -0.2,0.2 l -11.4,7 C 4.6,16.8 4.3,16.6 4.3,16 V 2 C 4.3,1.5 4.7,1.2 5.1,1.5 Z"
       class="st0" /></g><g
     style="fill:#2c3e50;fill-opacity:1;opacity:0.7"
     id="pause"><g
       style="fill:#2c3e50;fill-opacity:1"
       id="g3689"><path
         inkscape:connector-curvature="0"
         style="fill:#2c3e50;fill-opacity:1"
         id="path3685"
         d="m 24,1 h 2.2 c 0.6,0 1,0.4 1,1 v 14 c 0,0.6 -0.4,1 -1,1 H 24 c -0.6,0 -1,-0.4 -1,-1 V 2 c 0,-0.5 0.4,-1 1,-1 z"
         class="st0" /><path
         inkscape:connector-curvature="0"
         style="fill:#2c3e50;fill-opacity:1"
         id="path3687"
         d="M 33.8,1 H 36 c 0.6,0 1,0.4 1,1 v 14 c 0,0.6 -0.4,1 -1,1 h -2.2 c -0.6,0 -1,-0.4 -1,-1 V 2 c 0,-0.5 0.4,-1 1,-1 z"
         class="st0" /></g></g><g
     style="fill:#2c3e50;fill-opacity:1;opacity:0.7"
     id="fullscreen"><g
       style="fill:#2c3e50;fill-opacity:1"
       id="enter"><path
         inkscape:connector-curvature="0"
         style="fill:#2c3e50;fill-opacity:1"
         id="path3692"
         d="m 81,1.4 c 0,-0.6 0.4,-1 1,-1 h 5.4 c 0.6,0 0.7,0.3 0.3,0.7 l -6,6 C 81.3,7.5 81,7.4 81,6.8 Z"
         class="st0" /><path
         inkscape:connector-curvature="0"
         style="fill:#2c3e50;fill-opacity:1"
         id="path3694"
         d="m 81,17.2 c 0,0.6 0.4,1 1,1 h 5.4 c 0.6,0 0.7,-0.3 0.3,-0.7 l -6,-6 C 81.3,11.1 81,11.2 81,11.8 Z"
         class="st0" /><path
         inkscape:connector-curvature="0"
         style="fill:#2c3e50;fill-opacity:1"
         id="path3696"
         d="m 98.8,1.4 c 0,-0.6 -0.4,-1 -1,-1 h -5.4 c -0.6,0 -0.7,0.3 -0.3,0.7 l 6,6 c 0.4,0.4 0.7,0.3 0.7,-0.3 0,0 0,-5.4 0,-5.4 z"
         class="st0" /><path
         inkscape:connector-curvature="0"
         style="fill:#2c3e50;fill-opacity:1"
         id="path3698"
         d="m 98.8,17.2 c 0,0.6 -0.4,1 -1,1 h -5.4 c -0.6,0 -0.7,-0.3 -0.3,-0.7 l 6,-6 c 0.4,-0.4 0.7,-0.3 0.7,0.3 0,0 0,5.4 0,5.4 z"
         class="st0" /></g><g
       style="fill:#2c3e50;fill-opacity:1"
       id="exit"><g
         style="fill:#2c3e50;fill-opacity:1"
         id="g3709"><path
           inkscape:connector-curvature="0"
           style="fill:#2c3e50;fill-opacity:1"
           id="path3701"
           d="m 112.7,5 c 0,0.6 0.4,1 1,1 h 4.1 c 0.6,0 0.7,-0.3 0.3,-0.7 l -4.7,-4.7 c -0.4,-0.4 -0.7,-0.3 -0.7,0.3 0,0 0,4.1 0,4.1 z"
           class="st0" /><path
           inkscape:connector-curvature="0"
           style="fill:#2c3e50;fill-opacity:1"
           id="path3703"
           d="m 105.6,6 c 0.6,0 1,-0.4 1,-1 V 0.9 c 0,-0.6 -0.3,-0.7 -0.7,-0.3 l -4.7,4.7 c -0.4,0.4 -0.3,0.7 0.3,0.7 z"
           class="st0" /><path
           inkscape:connector-curvature="0"
           style="fill:#2c3e50;fill-opacity:1"
           id="path3705"
           d="m 106.6,13.1 c 0,-0.6 -0.4,-1 -1,-1 h -4.1 c -0.6,0 -0.7,0.3 -0.3,0.7 l 4.7,4.7 c 0.4,0.4 0.7,0.3 0.7,-0.3 0,0 0,-4.1 0,-4.1 z"
           class="st0" /><path
           inkscape:connector-curvature="0"
           style="fill:#2c3e50;fill-opacity:1"
           id="path3707"
           d="m 113.7,12.1 c -0.6,0 -1,0.4 -1,1 v 4.1 c 0,0.5 0.3,0.7 0.7,0.3 l 4.7,-4.7 c 0.4,-0.4 0.3,-0.7 -0.3,-0.7 z"
           class="st0" /></g></g></g><path
     inkscape:connector-curvature="0"
     style="fill:#2c3e50;fill-opacity:1;opacity:0.7"
     id="path3713"
     d="M 65,5.8 C 64.5,6.2 63.8,6.4 63.2,6.4 H 60 c -0.6,0 -1,0.4 -1,1 v 5.7 c 0,0.6 0.4,1 1,1 h 3.2 c 0.3,0 0.7,0 1,0 0.3,0.2 0.5,0.4 0.8,0.6 l 3.5,2.6 c 0.4,0.3 0.8,0.1 0.8,-0.4 V 3.5 C 69.3,3 68.9,2.8 68.5,3.1 Z"
     class="st0" /><path
     inkscape:connector-curvature="0"
     style="fill:#2c3e50;fill-opacity:1;stroke:#2c3e50;stroke-width:1;stroke-linecap:round;stroke-miterlimit:4;stroke-dasharray:none;stroke-opacity:1;opacity:0.7"
     id="path3715"
     d="m 74.591589,2.5 c 0,0 3.9,-0.8 3.9,7.7 0,8.5 -3.9,7.8 -3.9,7.8"
     class="st1" /><path
     inkscape:connector-curvature="0"
     style="fill:#2c3e50;fill-opacity:1;stroke:#2c3e50;stroke-width:1;stroke-linecap:round;stroke-miterlimit:4;stroke-dasharray:none;stroke-opacity:1;opacity:0.7"
     id="path3717"
     d="m 70.6,6.4 c 0,0 2.6,-0.4 2.6,3.8 0,4.2 -2.6,3.9 -2.6,3.9"
     class="st1" /><g
     id="muted"
     style="fill:#2c3e50;fill-opacity:1;opacity:0.7"><path
       class="st0"
       d="M 47,5.8 C 46.5,6.2 45.8,6.4 45.2,6.4 H 42 c -0.6,0 -1,0.4 -1,1 v 5.7 c 0,0.6 0.4,1 1,1 h 3.2 c 0.3,0 0.7,0 1,0 0.3,0.2 0.5,0.4 0.8,0.6 l 3.5,2.6 c 0.4,0.3 0.8,0.1 0.8,-0.4 V 3.5 C 51.3,3 50.9,2.8 50.5,3.1 Z"
       id="path3720"
       style="fill:#2c3e50;fill-opacity:1"
       inkscape:connector-curvature="0" /><line
       class="st2"
       x1="52.799999"
       y1="7"
       x2="58.200001"
       y2="12.4"
       id="line3722"
       style="fill:#2c3e50;stroke:#ffffff;stroke-width:2;stroke-linecap:round;fill-opacity:1" /><line
       class="st2"
       x1="52.799999"
       y1="12.4"
       x2="58.200001"
       y2="7"
       id="line3724"
       style="fill:#2c3e50;stroke:#ffffff;stroke-width:2;stroke-linecap:round;fill-opacity:1" /></g><g
     style="fill:#2c3e50;fill-opacity:1;opacity:0.7"
     id="closed_captions"><path
       inkscape:connector-curvature="0"
       style="fill:#2c3e50;stroke:#ffffff;fill-opacity:1"
       id="path3728"
       d="m 128.7,8.6 c -6.2,-4.2 -6.5,7.8 0,3.9"
       class="st3" /><path
       inkscape:connector-curvature="0"
       style="fill:#2c3e50;stroke:#ffffff;fill-opacity:1"
       id="path3730"
       d="m 135.2,8.6 c -6.2,-4.2 -6.5,7.8 0,3.9"
       class="st3" /><path
       inkscape:connector-curvature="0"
       style="fill:#2c3e50;fill-opacity:1"
       id="path3732"
       d="m 122.2,3.4 h 15.7 V 16.5 H 122.2 Z M 120.8,2 v 15.7 h 18.3 V 2 Z"
       class="st0" /></g><g
     style="fill:#2c3e50;fill-opacity:1"
     id="g3741"><path
       inkscape:connector-curvature="0"
       style="fill:#2c3e50;fill-opacity:1;opacity:0.7"
       id="path3735"
       d="m 143.2,3 h 14 c 1.1,0 2,0.9 2,2 v 10 c 0,1.1 -0.9,2 -2,2 h -14 c -1.1,0 -2,-0.9 -2,-2 V 5 c 0,-1.1 0.9,-2 2,-2 z"
       class="st0" /><path
       inkscape:connector-curvature="0"
       style="fill:#ffffff;fill-opacity:1"
       id="path3737"
       d="m 146.4,13.8 c -0.8,0 -1.6,-0.4 -2.1,-1 -1.1,-1.4 -1,-3.4 0.1,-4.8 0.5,-0.6 2,-1.7 4.6,0.2 L 148.4,9 c -1.4,-1 -2.6,-1.1 -3.3,-0.3 -0.8,1 -0.8,2.4 -0.1,3.5 0.7,0.9 1.9,0.8 3.4,-0.1 l 0.5,0.9 c -0.7,0.5 -1.6,0.7 -2.5,0.8 z"
       class="st4" /><path
       inkscape:connector-curvature="0"
       style="fill:#ffffff;fill-opacity:1"
       id="path3739"
       d="m 153.9,13.8 c -0.8,0 -1.6,-0.4 -2.1,-1 -1.1,-1.4 -1,-3.4 0.1,-4.8 0.5,-0.6 2,-1.7 4.6,0.2 L 156,9 c -1.4,-1 -2.6,-1.1 -3.3,-0.3 -0.8,1 -0.8,2.4 -0.1,3.5 0.7,0.9 1.9,0.8 3.4,-0.1 l 0.5,0.9 c -0.8,0.5 -1.7,0.7 -2.6,0.8 z"
       class="st4" /></g><path
     class="st5"
     d="M 2.5,79 C 2.5,58.3 19.3,41.5 40,41.5 60.7,41.5 77.5,58.3 77.5,79 77.5,99.7 60.7,116.5 40,116.5 19.3,116.5 2.5,99.7 2.5,79 Z"
     id="path3746"
     style="opacity:0.75;fill:#2c3e50;fill-opacity:1;stroke:#ffffff;stroke-width:5;enable-background:new"
     inkscape:connector-curvature="0" /><path
     class="st0"
     d="m 60.3,77 c 0.6,0.2 0.8,0.8 0.6,1.4 -0.1,0.3 -0.3,0.5 -0.6,0.6 L 30,96.5 c -1,0.6 -1.7,0.1 -1.7,-1 v -35 c 0,-1.1 0.8,-1.5 1.7,-1 z"
     id="path3744"
     style="fill:#ffffff;fill-opacity:1"
     inkscape:connector-curvature="0" /><path
     class="st6"
     d="m 82.5,79 c 0,-20.7 16.8,-37.5 37.5,-37.5 20.7,0 37.5,16.8 37.5,37.5 0,20.7 -16.8,37.5 -37.5,37.5 C 99.3,116.5 82.5,99.7 82.5,79 Z"
     id="path3751"
     style="fill:#1a1a1a;stroke:#ffffff;stroke-width:5"
     inkscape:connector-curvature="0" /><g
     style="fill:#2388d3;fill-opacity:1"
     id="loading"><circle
       style="fill:#2388d3;fill-opacity:1"
       id="circle3754"
       r="8.1000004"
       cy="47.099998"
       cx="201.89999"
       class="st0" /><circle
       style="opacity:0.4;fill:#2388d3;enable-background:new;fill-opacity:1"
       id="circle3756"
       r="5"
       cy="79"
       cx="233.89999"
       class="st7" /><circle
       style="opacity:0.6;fill:#2388d3;enable-background:new;fill-opacity:1"
       id="circle3758"
       r="6"
       cy="110.9"
       cx="201.89999"
       class="st8" /><circle
       style="opacity:0.8;fill:#2388d3;enable-background:new;fill-opacity:1"
       id="circle3760"
       r="7"
       cy="79"
       cx="170.10001"
       class="st9" /><circle
       style="opacity:0.9;fill:#2388d3;enable-background:new;fill-opacity:1"
       id="circle3762"
       r="7.5"
       cy="56.299999"
       cx="178.2"
       class="st10" /><circle
       style="opacity:0.3;fill:#2388d3;enable-background:new;fill-opacity:1"
       id="circle3764"
       r="4.5"
       cy="56.099998"
       cx="226.3"
       class="st11" /><circle
       style="opacity:0.5;fill:#2388d3;enable-background:new;fill-opacity:1"
       id="circle3766"
       r="5.5"
       cy="102.8"
       cx="225.8"
       class="st12" /><circle
       style="opacity:0.7;fill:#2388d3;enable-background:new;fill-opacity:1"
       id="circle3768"
       r="6.5"
       cy="102.8"
       cx="178.2"
       class="st13" /></g><g
     id="replay"
     style="fill:#2388d3;fill-opacity:1"><path
       class="st0"
       d="M178,9.4c0,0.4-0.4,0.7-0.9,0.7c-0.1,0-0.2,0-0.2-0.1l-4.9-1.8c-0.5-0.2-0.6-0.6-0.1-0.8l6.2-3.6   c0.5-0.3,0.8-0.1,0.7,0.5L178,9.4z"
       id="path3772"
       style="fill:#2388d3;fill-opacity:1" /><path
       class="st0"
       d="M169.4,15.9c-1,0-2-0.2-2.9-0.7c-2-1-3.2-3-3.2-5.2c0.1-3.4,2.9-6,6.3-6c2.5,0.1,4.8,1.7,5.6,4.1l0.1-0.1   l2.1,1.1c-0.6-4.4-4.7-7.5-9.1-6.9c-3.9,0.6-6.9,3.9-7,7.9c0,2.9,1.7,5.6,4.3,7c1.2,0.6,2.5,0.9,3.8,1c2.6,0,5-1.2,6.6-3.3   l-1.8-0.9C173,15.1,171.2,15.9,169.4,15.9z"
       id="path3774"
       style="fill:#2388d3;fill-opacity:1" /></g><g
     id="chapters"
     style="fill:#2388d3;fill-opacity:1"><path
       class="st0"
       d="M183.4,3.2L183.4,3.2c0.8,0,1.5,0.7,1.5,1.5l0,0c0,0.8-0.7,1.5-1.5,1.5l0,0c-0.8,0-1.5-0.7-1.5-1.5l0,0   C181.9,3.8,182.6,3.2,183.4,3.2z"
       id="path3777"
       style="fill:#2388d3;fill-opacity:1" /><path
       class="st0"
       d="M188.5,3.2h8.5c0.9,0,1.5,0.7,1.5,1.5l0,0c0,0.8-0.7,1.5-1.5,1.5h-8.5c-0.9,0-1.5-0.7-1.5-1.5l0,0   C186.9,3.8,187.6,3.2,188.5,3.2z"
       id="path3779"
       style="fill:#2388d3;fill-opacity:1" /><path
       class="st0"
       d="M183.4,8.2L183.4,8.2c0.8,0,1.5,0.7,1.5,1.5l0,0c0,0.8-0.7,1.5-1.5,1.5l0,0c-0.8,0-1.5-0.7-1.5-1.5l0,0   C181.9,8.8,182.6,8.2,183.4,8.2z"
       id="path3781"
       style="fill:#2388d3;fill-opacity:1" /><path
       class="st0"
       d="M188.5,8.2h8.5c0.9,0,1.5,0.7,1.5,1.5l0,0c0,0.8-0.7,1.5-1.5,1.5h-8.5c-0.9,0-1.5-0.7-1.5-1.5l0,0   C186.9,8.8,187.6,8.2,188.5,8.2z"
       id="path3783"
       style="fill:#2388d3;fill-opacity:1" /><path
       class="st0"
       d="M183.4,13.2L183.4,13.2c0.8,0,1.5,0.7,1.5,1.5l0,0c0,0.8-0.7,1.5-1.5,1.5l0,0c-0.8,0-1.5-0.7-1.5-1.5l0,0   C181.9,13.8,182.6,13.2,183.4,13.2z"
       id="path3785"
       style="fill:#2388d3;fill-opacity:1" /><path
       class="st0"
       d="M188.5,13.2h8.5c0.9,0,1.5,0.7,1.5,1.5l0,0c0,0.8-0.7,1.5-1.5,1.5h-8.5c-0.9,0-1.5-0.7-1.5-1.5l0,0   C186.9,13.8,187.6,13.2,188.5,13.2z"
       id="path3787"
       style="fill:#2388d3;fill-opacity:1" /></g><path
     class="st0"
     d="m 140.3,77 c 0.6,0.2 0.8,0.8 0.6,1.4 -0.1,0.3 -0.3,0.5 -0.6,0.6 L 110,96.5 c -1,0.6 -1.7,0.1 -1.7,-1 v -35 c 0,-1.1 0.8,-1.5 1.7,-1 z"
     id="path3749"
     style="fill:#e6e6e6"
     inkscape:connector-curvature="0" /></svg>